<?xml version="1.0" standalone="no"?>
<!DOCTYPE svg PUBLIC "-//W3C//DTD SVG 20010904//EN"
 "http://www.w3.org/TR/2001/REC-SVG-20010904/DTD/svg10.dtd">
<svg version="1.0" xmlns="http://www.w3.org/2000/svg"
 width="700.000000pt" height="700.000000pt" viewBox="0 0 700.000000 700.000000"
 preserveAspectRatio="xMidYMid meet">
<metadata>
Created by potrace 1.11, written by Peter Selinger 2001-2013
</metadata>
<g transform="translate(0.000000,700.000000) scale(0.100000,-0.100000)"
fill="#000000" stroke="none">
<path d="M3432 6980 c-65 -40 -67 -47 -68 -328 0 -283 2 -297 65 -339 61 -41
145 -22 188 44 16 24 18 53 18 288 0 232 -2 264 -18 288 -40 61 -126 83 -185
47z"/>
<path d="M2180 6738 c-66 -18 -111 -85 -101 -153 3 -19 42 -116 147 -365 51
-121 81 -150 153 -150 76 0 131 52 134 128 3 58 -176 486 -215 513 -40 29 -77
37 -118 27z"/>
<path d="M4758 6739 c-65 -17 -82 -41 -158 -226 -40 -98 -82 -198 -93 -222
-27 -62 -29 -109 -5 -152 25 -44 64 -69 115 -71 85 -3 105 26 218 298 90 220
94 231 84 271 -19 71 -96 120 -161 102z"/>
<path d="M1084 6009 c-76 -22 -117 -106 -87 -179 17 -44 324 -354 376 -381
122 -64 249 87 168 199 -43 61 -359 362 -379 362 -11 0 -26 2 -34 4 -7 2 -27
0 -44 -5z"/>
<path d="M5824 6000 c-37 -17 -384 -356 -384 -376 -1 -5 -3 -25 -5 -44 -12
-93 83 -168 175 -139 46 15 364 327 390 383 28 60 11 127 -43 163 -45 30 -87
34 -133 13z"/>
<path d="M3385 5894 c-226 -43 -422 -237 -469 -464 -27 -133 -5 -309 54 -418
19 -35 25 -54 17 -56 -7 -2 -43 -10 -82 -19 -206 -49 -400 -218 -476 -416 -47
-124 -49 -140 -46 -756 l2 -580 29 -60 c38 -76 110 -149 184 -183 50 -24 70
-27 155 -27 l97 0 0 -50 c1 -27 1 -356 1 -731 0 -721 1 -742 48 -832 48 -94
166 -181 273 -201 55 -10 138 -5 188 11 37 11 121 57 130 70 3 4 27 -7 53 -24
166 -108 403 -68 521 87 57 74 79 141 82 254 3 93 1 109 -19 144 -23 40 -61
67 -97 67 -19 0 -20 5 -20 170 0 154 2 171 18 176 92 28 125 80 113 181 -3 25
-55 73 -92 84 l-39 12 0 168 0 167 30 7 c58 13 116 86 109 137 -1 7 -1 34 0
60 1 43 3 46 24 42 12 -3 46 -5 76 -5 149 2 270 81 339 221 l27 55 0 585 c0
322 -3 603 -7 625 -10 62 -51 168 -89 232 -45 75 -160 189 -240 236 -66 38
-201 87 -244 87 -30 0 -39 14 -22 32 22 22 58 117 71 189 40 209 -22 417 -166
559 -143 142 -335 201 -533 164z"/>
<path d="M359 4917 c-90 -22 -129 -130 -75 -211 19 -29 21 -31 285 -140 223
-92 246 -96 306 -54 80 54 73 177 -12 225 -21 11 -74 35 -118 53 -44 17 -93
37 -110 45 -55 25 -200 82 -220 87 -11 2 -36 0 -56 -5z"/>
<path d="M6590 4922 c-31 -5 -282 -107 -420 -171 -74 -34 -101 -69 -102 -130
-1 -64 36 -113 99 -130 18 -5 44 -8 56 -6 21 4 374 148 444 182 81 38 100 155
35 215 -31 29 -77 45 -112 40z"/>
<path d="M96 3629 c-108 -30 -126 -183 -29 -246 24 -16 56 -18 288 -18 235 0
264 2 288 18 87 57 87 177 0 234 -24 16 -54 18 -273 19 -135 1 -258 -3 -274
-7z"/>
<path d="M6392 3630 c-88 -20 -130 -126 -79 -201 42 -63 56 -66 339 -65 225 1
257 3 281 19 83 54 85 171 4 231 -26 19 -43 21 -270 22 -133 0 -257 -2 -275
-6z"/>
<path d="M746 2505 c-109 -39 -420 -172 -442 -190 -33 -27 -53 -88 -43 -132
14 -66 80 -112 149 -104 27 3 417 163 462 189 15 9 35 31 44 50 55 117 -48
231 -170 187z"/>
<path d="M6155 2505 c-22 -8 -41 -15 -42 -15 -1 0 -11 -15 -22 -34 -40 -63
-21 -154 38 -188 38 -23 442 -189 460 -191 70 -4 136 42 150 106 9 40 -8 100
-36 128 -20 20 -438 196 -481 203 -15 3 -45 -2 -67 -9z"/>
<path d="M1390 1562 c-16 -2 -90 -68 -207 -185 -143 -143 -184 -190 -191 -219
-27 -102 64 -194 166 -166 29 8 76 48 209 181 95 95 179 185 187 201 8 16 13
47 12 67 -7 88 -79 137 -176 121z"/>
<path d="M5511 1554 c-58 -24 -91 -108 -69 -171 7 -20 81 -101 192 -211 193
-191 208 -201 282 -180 37 10 93 69 95 98 1 11 2 26 3 33 7 37 -36 94 -187
245 -89 90 -179 172 -199 183 -40 20 -74 21 -117 3z"/>
<path d="M2345 926 c-64 -23 -74 -39 -170 -267 -51 -123 -94 -233 -96 -244
-15 -100 82 -182 177 -149 50 17 71 44 113 146 19 46 40 97 48 113 64 147 101
253 97 284 -11 87 -94 144 -169 117z"/>
<path d="M4600 932 c-56 -17 -84 -38 -102 -78 -10 -25 -16 -55 -13 -71 4 -27
85 -232 126 -320 10 -24 19 -45 19 -48 0 -21 56 -118 75 -131 65 -42 140 -31
188 28 46 58 38 106 -58 323 -7 17 -34 80 -59 140 -30 72 -56 117 -72 129 -29
21 -81 35 -104 28z"/>
<path d="M3433 691 c-67 -42 -68 -47 -68 -337 0 -250 1 -264 21 -291 60 -81
177 -79 231 4 16 24 18 56 20 268 0 132 -3 256 -8 275 -20 82 -126 125 -196
81z"/>
</g>
</svg>
