<svg height="512pt" viewBox="0 0 512 512" width="512pt" xmlns="http://www.w3.org/2000/svg"><path d="m293.390625 261.070312v142.238282c0 10.324218-8.371094 18.691406-18.691406 18.691406-10.324219 0-18.691407-8.367188-18.691407-18.691406v-96.9375 96.9375c0 10.324218-8.371093 18.691406-18.695312 18.691406-10.320312 0-18.691406-8.367188-18.691406-18.691406v-142.238282zm0 0" fill="#98a1b3"/><path d="m293.375 261.601562v10.496094c0 9.546875 7.742188 17.289063 17.289062 17.289063 9.550782 0 17.292969-7.742188 17.292969-17.289063v-72.128906c0-22.484375-18.226562-40.707031-40.707031-40.707031h-62.5c-22.480469 0-40.707031 18.222656-40.707031 40.707031v72.128906c0 9.546875 7.742187 17.289063 17.292969 17.289063 9.546874 0 17.289062-7.742188 17.289062-17.289063v-10.496094" fill="#ffcb7c"/><path d="m256 159.261719c-18.582031 0-33.644531-15.0625-33.644531-33.644531v-1.972657c0-18.582031 15.0625-33.644531 33.644531-33.644531s33.644531 15.0625 33.644531 33.644531v1.972657c0 18.582031-15.0625 33.644531-33.644531 33.644531zm0 0" fill="#ffddcf"/><path d="m337.957031 272.097656v-72.132812c0-26.191406-19.964843-47.808594-45.472656-50.433594 4.519531-6.875 7.160156-15.089844 7.160156-23.914062v-1.972657c0-24.066406-19.578125-43.644531-43.644531-43.644531s-43.644531 19.578125-43.644531 43.644531v1.972657c0 8.824218 2.640625 17.039062 7.160156 23.914062-25.507813 2.628906-45.472656 24.242188-45.472656 50.4375v72.128906c0 15.046875 12.242187 27.289063 27.292969 27.289063 2.523437 0 4.964843-.351563 7.289062-.996094v104.917969c0 15.820312 12.871094 28.691406 28.691406 28.691406 7.136719 0 13.664063-2.625 18.691406-6.949219 5.023438 4.324219 11.554688 6.949219 18.691407 6.949219 15.820312 0 28.691406-12.871094 28.691406-28.691406v-6.640625c0-5.523438-4.476563-10-10-10s-10 4.476562-10 10v6.640625c0 4.792968-3.898437 8.691406-8.691406 8.691406s-8.691407-3.898438-8.691407-8.691406v-96.9375c0-5.523438-4.476562-10-10-10-5.523437 0-10 4.476562-10 10v96.9375c0 4.792968-3.898437 8.691406-8.691406 8.691406-4.792968 0-8.691406-3.898438-8.691406-8.691406v-131.710938l54.753906-.015625v.515625c0 .1875.007813.371094.011719.558594v34.011719c0 5.519531 4.476563 10 10 10s10-4.480469 10-10v-8.273438c2.320313.640625 4.757813.992188 7.273437.992188 15.050782 0 27.292969-12.242188 27.292969-27.289063zm-105.601562-148.453125c0-13.039062 10.605469-23.644531 23.644531-23.644531s23.644531 10.605469 23.644531 23.644531v1.972657c0 13.039062-10.605469 23.644531-23.644531 23.644531s-23.644531-10.605469-23.644531-23.644531zm71.035156 148.730469v-69.578125c0-5.519531-4.476563-10-10-10s-10 4.480469-10 10l-.011719 48.785156-54.699218.015625-.054688-48.628906c-.007812-5.519531-4.484375-9.988281-10-9.988281-.003906 0-.007812 0-.011719 0-5.523437.003906-9.996093 4.488281-9.988281 10.011719v69.105468c0 4.019532-3.269531 7.289063-7.289062 7.289063-4.023438 0-7.292969-3.269531-7.292969-7.289063v-72.132812c0-16.929688 13.773437-30.703125 30.707031-30.703125h62.5c16.933594 0 30.707031 13.773437 30.707031 30.703125v72.132812c0 4.019532-3.273437 7.289063-7.292969 7.289063-3.921874 0-7.125-3.121094-7.273437-7.011719zm0 0"/><path d="m256 52c5.523438 0 10-4.476562 10-10v-32c0-5.523438-4.476562-10-10-10s-10 4.476562-10 10v32c0 5.523438 4.476562 10 10 10zm0 0"/><path d="m256 460c-5.523438 0-10 4.476562-10 10v32c0 5.523438 4.476562 10 10 10s10-4.476562 10-10v-32c0-5.523438-4.476562-10-10-10zm0 0"/><path d="m502 246h-32c-5.523438 0-10 4.476562-10 10s4.476562 10 10 10h32c5.523438 0 10-4.476562 10-10s-4.476562-10-10-10zm0 0"/><path d="m52 256c0-5.523438-4.476562-10-10-10h-32c-5.523438 0-10 4.476562-10 10s4.476562 10 10 10h32c5.523438 0 10-4.476562 10-10zm0 0"/><path d="m422.878906 74.980469-22.628906 22.625c-3.90625 3.90625-3.90625 10.238281 0 14.144531 1.953125 1.953125 4.511719 2.929688 7.070312 2.929688 2.558594 0 5.121094-.976563 7.070313-2.929688l22.628906-22.628906c3.90625-3.902344 3.90625-10.234375 0-14.140625-3.90625-3.902344-10.238281-3.90625-14.140625 0zm0 0"/><path d="m97.609375 400.25-22.628906 22.628906c-3.90625 3.902344-3.90625 10.234375 0 14.140625 1.953125 1.953125 4.511719 2.929688 7.070312 2.929688 2.558594 0 5.121094-.976563 7.070313-2.929688l22.628906-22.625c3.90625-3.90625 3.90625-10.238281 0-14.144531-3.90625-3.902344-10.234375-3.902344-14.140625 0zm0 0"/><path d="m414.390625 400.25c-3.902344-3.902344-10.234375-3.902344-14.140625 0-3.90625 3.90625-3.90625 10.238281 0 14.144531l22.628906 22.625c1.949219 1.953125 4.511719 2.929688 7.070313 2.929688 2.558593 0 5.117187-.976563 7.070312-2.929688 3.90625-3.90625 3.90625-10.238281 0-14.140625zm0 0"/><path d="m89.121094 74.980469c-3.902344-3.90625-10.234375-3.90625-14.140625 0s-3.90625 10.238281 0 14.140625l22.628906 22.628906c1.953125 1.953125 4.511719 2.929688 7.070313 2.929688 2.558593 0 5.117187-.976563 7.070312-2.929688 3.90625-3.90625 3.90625-10.238281 0-14.144531zm0 0"/><path d="m164.867188 62.117188c1.59375 3.851562 5.316406 6.175781 9.242187 6.175781 1.277344 0 2.574219-.246094 3.824219-.765625 5.101562-2.113282 7.527344-7.960938 5.410156-13.0625l-12.246094-29.566406c-2.113281-5.101563-7.960937-7.523438-13.0625-5.410157-5.105468 2.113281-7.527344 7.960938-5.414062 13.066407zm0 0"/><path d="m347.132812 449.882812c-2.113281-5.101562-7.964843-7.523437-13.066406-5.410156-5.101562 2.113282-7.523437 7.960938-5.410156 13.0625l12.246094 29.566406c1.59375 3.851563 5.316406 6.175782 9.242187 6.175782 1.277344 0 2.574219-.246094 3.824219-.765625 5.101562-2.113281 7.523438-7.960938 5.410156-13.066407zm0 0"/><path d="m453.714844 184.109375c1.273437 0 2.570312-.246094 3.820312-.765625l29.566406-12.246094c5.101563-2.113281 7.523438-7.960937 5.410157-13.0625-2.113281-5.105468-7.960938-7.523437-13.0625-5.414062l-29.566407 12.246094c-5.101562 2.113281-7.523437 7.960937-5.410156 13.0625 1.59375 3.851562 5.316406 6.179687 9.242188 6.179687zm0 0"/><path d="m54.464844 328.65625-29.566406 12.242188c-5.101563 2.117187-7.523438 7.964843-5.410157 13.066406 1.59375 3.851562 5.316407 6.175781 9.242188 6.175781 1.273437 0 2.570312-.246094 3.824219-.761719l29.5625-12.246094c5.101562-2.113281 7.523437-7.964843 5.410156-13.066406-2.113282-5.101562-7.960938-7.519531-13.0625-5.410156zm0 0"/><path d="m353.96875 19.484375c-5.101562-2.105469-10.953125.3125-13.066406 5.414063l-12.246094 29.5625c-2.113281 5.105468.308594 10.953124 5.410156 13.066406 1.253906.519531 2.546875.765625 3.824219.765625 3.925781 0 7.648437-2.324219 9.242187-6.175781l12.246094-29.566407c2.113282-5.101562-.308594-10.949219-5.410156-13.066406zm0 0"/><path d="m177.933594 444.472656c-5.101563-2.109375-10.953125.308594-13.066406 5.410156l-12.246094 29.5625c-2.113282 5.105469.3125 10.953126 5.414062 13.066407 1.25.519531 2.546875.765625 3.820313.765625 3.925781 0 7.648437-2.324219 9.246093-6.175782l12.246094-29.566406c2.109375-5.101562-.3125-10.949218-5.414062-13.0625zm0 0"/><path d="m487.101562 340.898438-29.566406-12.242188c-5.097656-2.109375-10.949218.308594-13.0625 5.410156-2.113281 5.105469.308594 10.953125 5.410156 13.066406l29.566407 12.246094c1.25.515625 2.546875.761719 3.820312.761719 3.925781 0 7.648438-2.324219 9.246094-6.175781 2.109375-5.101563-.3125-10.949219-5.414063-13.066406zm0 0"/><path d="m62.117188 164.867188-29.566407-12.246094c-5.097656-2.109375-10.949219.308594-13.0625 5.414062-2.113281 5.101563.308594 10.949219 5.410157 13.0625l29.566406 12.246094c1.25.519531 2.546875.765625 3.820312.765625 3.925782 0 7.648438-2.328125 9.242188-6.179687 2.113281-5.101563-.308594-10.949219-5.410156-13.0625zm0 0"/><path d="m293.390625 341.671875c-2.628906 0-5.210937 1.058594-7.070313 2.929687-1.859374 1.859376-2.929687 4.429688-2.929687 7.070313 0 2.628906 1.070313 5.207031 2.929687 7.066406 1.859376 1.859375 4.441407 2.933594 7.070313 2.933594s5.210937-1.070313 7.070313-2.933594c1.859374-1.859375 2.929687-4.4375 2.929687-7.066406 0-2.640625-1.070313-5.210937-2.929687-7.070313-1.859376-1.871093-4.441407-2.929687-7.070313-2.929687zm0 0"/></svg>